<?xml version="1.0" encoding="UTF-8"?>
<!DOCTYPE svg PUBLIC "-//W3C//DTD SVG 1.1//EN" "http://www.w3.org/Graphics/SVG/1.1/DTD/svg11.dtd">
<!-- Creator: CorelDRAW 2020 (64-Bit) -->
<svg xmlns="http://www.w3.org/2000/svg" xml:space="preserve" width="16cm" height="7.26cm" version="1.1" style="shape-rendering:geometricPrecision; text-rendering:geometricPrecision; image-rendering:optimizeQuality; fill-rule:evenodd; clip-rule:evenodd"
viewBox="0 0 16000 7260"
 xmlns:xlink="http://www.w3.org/1999/xlink"
 xmlns:xodm="http://www.corel.com/coreldraw/odm/2003">
 <defs>
  <style type="text/css">
   <![CDATA[
    .str3 {stroke:#DCB004;stroke-width:100;stroke-miterlimit:22.9256}
    .str1 {stroke:#DCB004;stroke-width:75;stroke-miterlimit:22.9256}
    .str2 {stroke:#DCB004;stroke-width:20;stroke-miterlimit:22.9256}
    .str0 {stroke:#1F2937;stroke-width:20;stroke-miterlimit:22.9256}
    .fil0 {fill:#1F2929}
    .fil1 {fill:#DCB004;fill-rule:nonzero}
   ]]>
  </style>
 </defs>
 <g id="Capa_x0020_1">
  <metadata id="CorelCorpID_0Corel-Layer"/>
  <g id="_2570186133456">
   <polygon class="fil0 str0" points="-15.85,-8.28 16053.29,-8.28 16053.29,7254.06 -15.85,7254.06 "/>
   <path class="fil0 str1" d="M4801.21 5233.6c-150.33,-39.93 -283.85,80.66 -316.82,220.55 -34.24,145.29 66.13,311.01 222.91,316.85l1133.93 3.48c387.77,-17.23 228.11,-532.64 -46.96,-466.09 -40.46,-118.49 -161.86,-159.8 -264.35,-156.52 -231.1,-359.04 -651.23,-214.31 -728.71,81.73z"/>
   <path class="fil1 str2" d="M7162.02 6077.05l0 -881.4 101.35 81.89c67.56,-70.64 150.82,-105.78 250.12,-105.78 99.3,0 182.56,33.78 250.12,101.34 67.23,67.57 101.01,150.83 101.01,250.13l0 553.82 -118.41 0 0 -553.82c0,-67.57 -22.53,-123.18 -67.91,-167.21 -45.03,-43.67 -100.32,-65.51 -164.81,-65.51 -64.49,0 -119.77,22.52 -164.81,67.9 -45.38,45.04 -67.91,99.98 -67.91,164.82l0 553.82 -118.75 0zm1821.16 -881.4l0 881.4 -101.01 -81.9c-67.56,70.3 -150.82,105.45 -250.12,105.45 -99.3,0 -182.56,-33.44 -250.12,-101.01 -67.57,-67.56 -101.35,-151.16 -101.35,-250.12l0 -553.82 118.75 0 0 553.82c0,64.49 23.21,119.76 69.96,164.81 46.74,45.38 101,67.91 162.76,67.91 67.57,0 123.19,-23.21 166.86,-69.95 44.02,-46.75 65.86,-101.01 65.86,-162.77l0 -553.82 118.41 0zm995.71 94.86c-96.22,0 -178.12,33.78 -245.68,101.34 -67.23,67.23 -101.01,149.12 -101.01,245.69 0,96.24 33.78,178.13 101.01,245.69 67.56,67.23 149.46,101.01 245.68,101.01 97.93,0 180.17,-33.1 247.05,-99.98 66.54,-66.88 99.98,-149.12 99.98,-246.72 0,-97.94 -33.44,-180.17 -99.98,-247.05 -66.88,-66.54 -149.12,-99.98 -247.05,-99.98zm-465.44 -560.3l-146.38 0 64.49 -118.75 200.64 0 0 715.56c93.17,-103.4 208.84,-155.26 346.69,-155.26 129.34,0 239.21,45.39 329.97,135.81 90.43,90.77 135.81,200.64 135.81,329.97 0,126.26 -45.38,235.45 -135.81,327.59 -90.76,91.78 -200.63,137.85 -329.97,137.85 -130.69,0 -242.61,-48.12 -336.12,-144.34l-129.32 118.41 0 -1346.84zm2053.88 1068.74l103.38 58.34c-38.89,73.03 -94.86,132.4 -168.21,177.79 -73.03,45.04 -153.56,67.9 -241.26,67.9 -126.59,0 -235.8,-46.07 -327.58,-137.85 -91.8,-92.14 -137.86,-201.33 -137.86,-327.59 0,-129.33 46.06,-239.2 137.86,-329.97 91.78,-90.42 200.99,-135.81 327.58,-135.81 80.53,0 156.29,20.13 227.25,60.4 71.32,40.26 126.27,91.45 164.83,153.22l-601.25 529.93c60.39,46.06 130.01,68.93 209.17,68.93 66.2,0 125.92,-16.38 179.82,-49.48 53.92,-33.1 95.9,-78.15 126.27,-135.81zm-594.78 32.42l514.92 -456.92c-64.49,-55.95 -139.9,-83.94 -226.23,-83.94 -97.59,0 -179.83,33.44 -246.71,99.98 -66.88,66.88 -100.32,149.11 -100.32,247.05 0,70.29 19.45,134.78 58.34,193.83z"/>
   <polygon class="fil1 str3" points="11721.37,3613.48 12904.15,3613.48 12904.15,3866.37 11468.5,3866.37 11468.5,1983.98 11086.61,1983.98 11238.2,1730.36 11468.5,1730.36 11468.5,736.33 12904.15,736.33 12904.15,989.94 11721.37,989.94 11721.37,1730.36 12472,1730.36 12472,1983.98 11721.37,1983.98 "/>
   <polygon class="fil1 str3" points="9277.84,989.94 9277.84,3866.37 9024.23,3866.37 9024.23,989.94 8403.32,989.94 8403.32,736.33 9898.75,736.33 9898.75,989.94 "/>
   <path class="fil1 str3" d="M5585.94 925.08c-245.61,0 -473.7,60.49 -685.77,182.19 -211.34,120.97 -378.97,289.32 -501.4,503.58 -123.16,214.98 -184.37,443.81 -184.37,685.75 0,248.51 61.21,478.81 184.37,690.88 122.43,211.34 290.06,378.95 501.4,501.38 212.07,123.16 440.16,184.39 685.77,184.39 248.51,0 478.79,-61.23 690.86,-184.39 211.34,-122.43 378.97,-290.04 501.4,-501.38 122.43,-212.07 184.37,-442.37 184.37,-690.88 0,-241.94 -61.94,-470.77 -184.37,-685.75 -122.43,-214.26 -290.06,-382.61 -501.4,-503.58 -212.07,-121.7 -442.35,-182.19 -690.86,-182.19zm0 -252.89c298.06,0 570.62,72.88 819.13,218.64 248.51,145.75 446,341.79 591.75,588.83 145.75,247.05 218.62,519.61 218.62,816.94 0,298.07 -72.87,570.63 -218.62,819.86 -145.75,248.51 -343.24,445.29 -591.75,591.04 -248.51,145.75 -521.07,218.62 -819.13,218.62 -297.34,0 -569.89,-72.87 -816.96,-218.62 -247.05,-145.75 -443.08,-342.53 -588.83,-591.04 -145.75,-249.23 -218.64,-521.79 -218.64,-819.86 0,-217.89 41.55,-426.31 123.89,-625.99 83.09,-198.96 200.41,-374.59 352,-526.91 152.32,-151.58 327.22,-268.18 524.71,-349.81 198.23,-80.88 405.92,-121.7 623.83,-121.7z"/>
   <polygon class="fil1 str3" points="2704.41,3866.37 2451.52,3866.37 2451.52,1983.98 1346.72,1983.98 1346.72,3866.37 1346.64,3866.37 1346.64,6324.38 1093.81,6324.38 1093.81,2625.22 1093.85,2625.22 1093.85,1983.98 711.96,1983.98 863.55,1725.98 1093.85,1725.98 1093.85,736.33 1346.72,736.33 1346.72,1725.98 2451.52,1725.98 2451.52,736.33 2704.41,736.33 "/>
   <polygon class="fil1 str3" points="15437.41,6324.38 14323.14,6324.38 14323.14,3194.34 14323.91,3194.34 14323.91,736.33 14576.74,736.33 14576.74,3194.34 14576.74,4664.88 14576.74,6071.49 15437.41,6071.49 "/>
  </g>
 </g>
</svg>
